<?xml version="1.0" encoding="UTF-8" standalone="no"?>
<!-- Created with Inkscape (http://www.inkscape.org/) -->

<svg
   xmlns:dc="http://purl.org/dc/elements/1.1/"
   xmlns:cc="http://creativecommons.org/ns#"
   xmlns:rdf="http://www.w3.org/1999/02/22-rdf-syntax-ns#"
   xmlns:svg="http://www.w3.org/2000/svg"
   xmlns="http://www.w3.org/2000/svg"
   xmlns:sodipodi="http://sodipodi.sourceforge.net/DTD/sodipodi-0.dtd"
   xmlns:inkscape="http://www.inkscape.org/namespaces/inkscape"
   width="14.350043mm"
   height="14.37138mm"
   viewBox="0 0 14.350043 14.37138"
   version="1.1"
   id="svg1277"
   inkscape:version="0.92.5 (2060ec1f9f, 2020-04-08)"
   sodipodi:docname="favicon.svg">
  <defs
     id="defs1271" />
  <sodipodi:namedview
     id="base"
     pagecolor="#ffffff"
     bordercolor="#666666"
     borderopacity="1.0"
     inkscape:pageopacity="0.0"
     inkscape:pageshadow="2"
     inkscape:zoom="7.9195959"
     inkscape:cx="27.646281"
     inkscape:cy="26.51177"
     inkscape:document-units="mm"
     inkscape:current-layer="layer1"
     showgrid="false"
     fit-margin-top="0"
     fit-margin-left="0"
     fit-margin-right="0"
     fit-margin-bottom="0"
     inkscape:window-width="1920"
     inkscape:window-height="1043"
     inkscape:window-x="0"
     inkscape:window-y="0"
     inkscape:window-maximized="1" />
  <metadata
     id="metadata1274">
    <rdf:RDF>
      <cc:Work
         rdf:about="">
        <dc:format>image/svg+xml</dc:format>
        <dc:type
           rdf:resource="http://purl.org/dc/dcmitype/StillImage" />
        <dc:title></dc:title>
      </cc:Work>
    </rdf:RDF>
  </metadata>
  <g
     inkscape:label="Layer 1"
     inkscape:groupmode="layer"
     id="layer1"
     transform="translate(-60.10474,-156.76669)">
    <path
       style="fill:#48dbb4;fill-opacity:1;stroke-width:0.36001205"
       d="m 66.84255,156.76669 a 6.1922083,6.1922083 0 0 0 -2.998959,11.28548 4.1401395,4.1401395 0 0 1 -3.738851,-3.80449 6.1562068,6.1562068 0 0 0 11.262497,3.19091 4.1041383,4.1041383 0 0 1 -3.735576,3.69948 6.1562068,6.1562068 0 0 0 3.05146,-11.29365 4.1401395,4.1401395 0 0 1 3.771662,3.77164 6.1562068,6.1562068 0 0 0 -11.295308,-3.08919 4.1401395,4.1401395 0 0 1 3.683075,-3.76018 z m 0.436388,4.01613 a 3.1686393,3.1686393 0 0 1 0.316612,0.0173 3.1686393,3.1686393 0 0 1 0.313352,0.0475 3.1686393,3.1686393 0 0 1 0.306807,0.0787 3.1686393,3.1686393 0 0 1 0.298595,0.10838 3.1686393,3.1686393 0 0 1 0.283802,0.13793 3.1686393,3.1686393 0 0 1 0.270673,0.16561 3.1686393,3.1686393 0 0 1 0.252658,0.19192 3.1686393,3.1686393 0 0 1 0.231317,0.2148 3.1686393,3.1686393 0 0 1 0.208348,0.238 3.1686393,3.1686393 0 0 1 0.185414,0.2574 3.1686393,3.1686393 0 0 1 0.157457,0.27576 3.1686393,3.1686393 0 0 1 0.129602,0.28858 3.1686393,3.1686393 0 0 1 0.10009,0.30038 3.1686393,3.1686393 0 0 1 0.06891,0.31006 3.1686393,3.1686393 0 0 1 0.03777,0.31352 3.1686393,3.1686393 0 0 1 0.0079,0.22484 3.1686393,3.1686393 0 0 1 -0.01629,0.31665 3.1686393,3.1686393 0 0 1 -0.04756,0.31353 3.1686393,3.1686393 0 0 1 -0.07709,0.30694 3.1686393,3.1686393 0 0 1 -0.109927,0.2969 3.1686393,3.1686393 0 0 1 -0.137782,0.28546 3.1686393,3.1686393 0 0 1 -0.164073,0.26919 3.1686393,3.1686393 0 0 1 -0.191963,0.25254 3.1686393,3.1686393 0 0 1 -0.216558,0.23143 3.1686393,3.1686393 0 0 1 -0.2379,0.20994 3.1686393,3.1686393 0 0 1 -0.257542,0.18361 3.1686393,3.1686393 0 0 1 -0.273963,0.15728 3.1686393,3.1686393 0 0 1 -0.290385,0.12957 3.1686393,3.1686393 0 0 1 -0.300258,0.10017 3.1686393,3.1686393 0 0 1 -0.3084,0.069 3.1686393,3.1686393 0 0 1 -0.315017,0.0378 3.1686393,3.1686393 0 0 1 -0.224769,0.007 3.1686393,3.1686393 0 0 1 -0.315017,-0.0134 3.1686393,3.1686393 0 0 1 -0.313354,-0.0475 3.1686393,3.1686393 0 0 1 -0.306806,-0.0787 3.1686393,3.1686393 0 0 1 -0.29856,-0.10808 3.1686393,3.1686393 0 0 1 -0.285467,-0.13793 3.1686393,3.1686393 0 0 1 -0.269078,-0.16561 3.1686393,3.1686393 0 0 1 -0.252657,-0.19192 3.1686393,3.1686393 0 0 1 -0.231318,-0.2148 3.1686393,3.1686393 0 0 1 -0.208348,-0.23972 3.1686393,3.1686393 0 0 1 -0.185414,-0.25741 3.1686393,3.1686393 0 0 1 -0.157455,-0.27403 3.1686393,3.1686393 0 0 1 -0.129602,-0.28858 3.1686393,3.1686393 0 0 1 -0.100091,-0.30036 3.1686393,3.1686393 0 0 1 -0.06891,-0.31006 3.1686393,3.1686393 0 0 1 -0.03777,-0.31354 3.1686393,3.1686393 0 0 1 -0.0079,-0.22483 3.1686393,3.1686393 0 0 1 0.01629,-0.31665 3.1686393,3.1686393 0 0 1 0.04756,-0.31352 3.1686393,3.1686393 0 0 1 0.07712,-0.30696 3.1686393,3.1686393 0 0 1 0.1083,-0.2969 3.1686393,3.1686393 0 0 1 0.137782,-0.28546 3.1686393,3.1686393 0 0 1 0.165702,-0.27056 3.1686393,3.1686393 0 0 1 0.191961,-0.25117 3.1686393,3.1686393 0 0 1 0.216558,-0.23282 3.1686393,3.1686393 0 0 1 0.2379,-0.20819 3.1686393,3.1686393 0 0 1 0.257542,-0.18363 3.1686393,3.1686393 0 0 1 0.273999,-0.15728 3.1686393,3.1686393 0 0 1 0.290385,-0.12957 3.1686393,3.1686393 0 0 1 0.300258,-0.10016 3.1686393,3.1686393 0 0 1 0.3084,-0.069 3.1686393,3.1686393 0 0 1 0.315017,-0.0396 3.1686393,3.1686393 0 0 1 0.223106,-0.007 z"
       id="path7052"
       inkscape:connector-curvature="0" />
    <g
       transform="matrix(0.75527669,0,0,0.75527669,-1.8312712,90.437269)"
       id="g7132">
      <g
         style="fill:none"
         id="g7128"
         transform="matrix(0.21870579,0,0,0.21870579,85.673986,91.315922)">
        <path
           id="path7126"
           d="m 23.946,29.3793 h -7.5202 v -4.704 h 20.4775 v 4.704 H 29.3831 V 39.452 H 23.946 Z"
           inkscape:connector-curvature="0"
           style="fill:#000000" />
      </g>
      <circle
         style="fill:#000000;fill-opacity:1;stroke:none;stroke-width:0.29104167;stroke-linejoin:miter;stroke-miterlimit:4;stroke-dasharray:none;stroke-opacity:1"
         id="circle7130"
         cx="91.505676"
         cy="95.314262"
         r="0.60240281" />
    </g>
  </g>
</svg>
